<?xml version="1.0" encoding="UTF-8"?><svg id="_レイヤー_2" xmlns="http://www.w3.org/2000/svg" viewBox="0 0 680.26 318.35"><defs><style>.cls-1{fill:#fff;}</style></defs><g id="_レイヤー_1-2"><path class="cls-1" d="M296.99,7.84c-32.2,14.08-53.74,48.13-52.53,83.18,2.42,76.62,93.1,113.87,149.41,62.43,17.3-15.92,27.55-38.88,28.02-62.43,1.93-65.7-65.31-109.69-124.9-83.18ZM381.36,157.08c-.3-.04-.6-.08-.89-.12-2.31-.34-4.38-.69-6.23-1.07-1.86-.36-3.49-.74-4.93-1.09-2.88-.7-4.96-1.33-6.39-1.76-11.55-3.59-17.28-7.49-26.39-11.28,4.58,1.87,8.59,3.05,12.85,4.1,4.27,1.04,8.8,1.9,14.56,2.86,1.42.22,3.49.57,6.32.9,1.41.16,3.01.35,4.8.48,1.8.17,3.79.28,5.99.37,2.2.08,4.75.08,7.4,0-2.23,2.34-4.6,4.55-7.09,6.61ZM391.41,147.2c-25.84,1.29-54.33-3.75-76.74-15.75-1.94-1.07-4.15-2.19-5.84-3.66-.78-.71-1.59-1.69-.95-1.89.45-.09,1.87.7,2.76,1.14,26.95,13.35,57.75,16.13,87.36,11.41-2.01,3.06-4.21,5.98-6.59,8.75ZM310.43,65.8c8.42-.49,8.84-.88,13.32-12.63-3.8,11.75-3.66,12.14,4.42,12.63-8.43.48-8.84.88-13.32,12.63,3.8-11.75,3.66-12.15-4.42-12.63ZM410.95,104.05c-17.28,5.62-34.96,8.59-53.69,4.97-13.39-2.92-26.26-12.83-27.56-27.1-.62-7.04-.1-12.75,7.43-18.99,7.52-6.24,16.44-4.56,20.22-3.56,3.78,1,11.16,8,7.38,16.59-.75,1.69,2.94-.78,4.25-3.46,1.32-2.68,4.67-11.14-6.59-23.69-4.65-5.18-9.22-8.3-13.79-10.15-.2-.09-.4-.19-.6-.27-.67-.28-1.26-.55-1.82-.76-.57-.21-1.07-.39-1.47-.54-.41-.14-.73-.25-.94-.33-.22-.07-.34-.11-.34-.11,0,0-.57-.17-1.6-.48-1.01-.32-2.6-.72-4.58-1.18-1.02-.2-2.13-.44-3.36-.66-.62-.09-1.26-.19-1.92-.3-.67-.1-1.34-.21-2.06-.28-1.42-.16-2.96-.35-4.4-.44-1.48-.09-2.99-.24-4.57-.27-2.51-.1-5.11-.12-7.7-.04-4.93,16.24-2.94,16.96,11.46,17.82-16.87.98-17.94,1.77-26.68,24.63,8.22,2.66,15.41,7.64,19.43,15.44,2.05,4.08,2.78,8.97-.03,12.93-1.07,1.73-3.41,2.34-5.17,1.3-2.42-1.42-.06-6.36-2.42-8.3-1.15-.73-.86,1.32-.99,2.02-.13,1.07-.74,1.97-1.54,1.51-.37-.24-.66-.81-.84-1.27-1.32-3.2-3.62-7.54-7.53-6.58-4.96,1.12.01,10.25-.55,13.84.1,3.48-4.3,4.57-6.67,2.51-2.42-1.93-3.74-5.11-6.38-6.79-.88-.5-2.13-1.16-2.73-.57-.13.36.1.76.3,1.08.63.93,1.26,1.78,1.8,2.78,5.15,9.12-9.42,3.57-13.58,5.65-8.53,3.11-9.64,15.61-6.4,23.25.21.01.21-.46.28-.69.41-2.5,1.54-9.5,1.88-11.49.1-.48.24-.78.58-1.18.57-.64,1.68-1.81,1.82-1.2.08.3-.14.94-.2,1.34-.94,4.25-.91,8.33-.09,12.16,4.25,18.63,16.54,28.52,22.9,32.55-3.31-2.42-7.56-6.7-11.71-13.2-5.89-9.22-6.67-11.17-4.83-12.33,2.15-1.37,13.13,14.22,35.83,21.5,16.21,5.2,42.59,3.75,65.73-1.23-4.21,3.01-8.72,5.62-13.49,7.74-23.76,10.72-48.22,9.11-68.5-.66-.13-.06-.26-.13-.39-.19-1.87-.91-3.71-1.89-5.5-2.93-15.75-10.63-34.82-28.89-27.86-46.88,2.37-5.53,7.4-10.05,13.43-10.91,1.12-.24,3.2.01,2.83-1.15-1.21-1.97-7.93-3.38-11.12-3.17-3.97.59-12.59,2.68-16.54,4.9-.25.13-.52.28-.78.42-.17-.93-.32-1.86-.46-2.8,1-.45,1.99-.89,2.99-1.32l.09-.03c9.87-4.26,19.72-7.99,30.57-5.88,1.01.22,1.47.55,2.69,1.32,1.74,1.09,4.48,2.8,6.26,3.91.8.49,1.39.94,1.64.88.2-.03.2-.38.07-.94-2.17-9.6-14.54-11.85-23.5-10.29-1.31.06-.95-.57-.09-.87,2.05-.58,4.27-.98,6.31-1.32,4.25-.62,8.34-.47,12.69.11.65.09,1.92.15,1.09-.72-5.4-5.68-26.15-2.16-34.47,1.64-2.1,1-4.79,2.41-7.13,3.62,0-.26,0-.52-.01-.78,2.81-1.85,6.15-3.89,9-5.58,2.63-1.5,5.32-3.26,8.12-4.3,14.75-5.09,30.42-3.65,43.41,4.77,1.34.86.91.06.34-.69-10.86-13.92-32.95-12.58-47.62-6.74-4.99,1.88-8.85,4.98-13.16,7.82.05-1,.11-2.01.2-3.02,4.66-2.81,9.17-5.42,12.65-7.37,4.98-2.8,7.89-4.37,13.04-5.34,7.79-1.22,16.48-.8,24.25,1.71,7.38-22.85,6.87-23.64-9.31-24.62,15-.86,17.5-1.58,24.01-17.8-3.69.12-7.35.42-10.66.89-5.85.8-10.08,2.32-15.53,3.85-9.28,2.82-17.93,6.86-26.14,11.62,7.95-12.55,19.15-22.51,32.06-29.1-.01.29-.01.58.02.88.38,3.84,3.8,6.66,7.64,6.28,3.85-.37,6.66-3.79,6.28-7.64-.17-1.76-.99-3.3-2.19-4.42,2.14-.71,4.3-1.32,6.48-1.85.92,1.35,2.51,2.18,4.25,2.01,2.03-.19,3.6-1.68,4.03-3.56,14.05-1.89,28.78-.14,42.79,6,28.57,12.49,49.3,41.57,49.93,73.04.15,4.37-.09,8.72-.67,13.03ZM305.54,142.79c.56-.13,1.11.22,1.24.78.12.56-.23,1.11-.79,1.24-.55.12-1.11-.23-1.23-.79-.13-.56.23-1.11.78-1.23ZM303.66,140.33c-.16-.72.29-1.43,1.01-1.59.72-.16,1.43.29,1.59,1.01.16.72-.29,1.43-1.01,1.59-.72.16-1.43-.29-1.59-1.01ZM301.42,145.27c-1.09.25-2.17-.44-2.41-1.53-.25-1.09.44-2.17,1.53-2.41,1.09-.25,2.17.44,2.41,1.53.25,1.09-.44,2.17-1.53,2.41ZM289.01,130.02c-1.39.55-2.96-.12-3.51-1.51-.55-1.38.13-2.95,1.51-3.5,1.39-.55,2.96.12,3.51,1.51.55,1.38-.13,2.95-1.51,3.5ZM281.72,124.4c-2.1.84-4.48-.19-5.31-2.29-.84-2.1.19-4.48,2.29-5.31,2.1-.84,4.48.19,5.31,2.29.84,2.1-.19,4.48-2.29,5.31ZM281.53,132.27c-1.07.43-2.29-.09-2.72-1.17-.43-1.07.1-2.29,1.17-2.72,1.08-.42,2.29.1,2.72,1.18.43,1.07-.1,2.29-1.17,2.71Z"/><path class="cls-1" d="M366.02,82.29c-2.99,7.84-3.27,8.1-8.89,8.43,5.39.32,5.48.59,2.95,8.43,2.99-7.84,3.27-8.1,8.89-8.43-5.39-.32-5.48-.59-2.95-8.43Z"/><path class="cls-1" d="M370,88.43c2.18-5.71,2.38-5.9,6.48-6.14-3.93-.24-4-.43-2.15-6.14-2.18,5.71-2.38,5.9-6.48,6.14,3.93.24,4,.43,2.15,6.14Z"/><path class="cls-1" d="M371.27,90.85c-1.47,3.86-1.61,3.99-4.37,4.15,2.65.16,2.7.29,1.45,4.15,1.47-3.86,1.61-3.99,4.37-4.15-2.65-.16-2.7-.29-1.45-4.15Z"/><path class="cls-1" d="M380.68,40.11c1.25-.28,2.03-1.51,1.75-2.76s-1.51-2.03-2.76-1.75c-1.25.28-2.03,1.51-1.75,2.76s1.51,2.03,2.76,1.75Z"/><path class="cls-1" d="M367.25,40.86c2.05-.46,3.35-2.49,2.89-4.55-.46-2.05-2.49-3.35-4.55-2.89-2.05.46-3.35,2.49-2.89,4.55.46,2.05,2.49,3.35,4.55,2.89Z"/><path class="cls-1" d="M377.26,54.57c2.25-.5,3.67-2.73,3.17-4.99-.5-2.25-2.73-3.67-4.99-3.17-2.25.5-3.67,2.73-3.17,4.99.5,2.25,2.73,3.67,4.99,3.17Z"/><path class="cls-1" d="M322.84,24.27c1.97-.19,3.4-1.94,3.21-3.91-.19-1.97-1.94-3.4-3.91-3.21-1.97.19-3.4,1.94-3.21,3.91.19,1.97,1.94,3.4,3.91,3.21Z"/><path class="cls-1" d="M380.15,62.93c-1.98.44-3.23,2.41-2.79,4.39.44,1.98,2.41,3.23,4.39,2.79,1.98-.44,3.23-2.41,2.79-4.39-.44-1.98-2.41-3.23-4.39-2.79Z"/><path class="cls-1" d="M226.18,285.33c-6.07-3.19-11.8-6.21-11.8-12.18,0-4.73,3.36-8.16,8-8.16,8.34,0,10.1,7.6,11.52,13.7l.03.11h2.64l.73-14.11-.07-.04c-4.02-2.36-8.73-3.61-13.64-3.61-9.7,0-20.02,5.84-20.02,16.66,0,8.3,7.11,11.95,13.99,15.48,6.31,3.24,12.27,6.3,12.27,12.69,0,4.99-3.72,8.48-9.04,8.48-11.28,0-16.44-12.7-17.75-16.59l-.04-.12-2.73.53,2.66,15.94v.07s.07.03.07.03c5.18,2.67,10.8,4.09,16.27,4.09,10.64,0,21.37-5.08,21.37-16.42,0-8.96-7.35-12.82-14.46-16.56Z"/><path class="cls-1" d="M265.85,280.28c-5.74,0-11.06,1.85-14.99,5.21-4.18,3.58-6.39,8.45-6.39,14.09,0,12.15,10.67,18.5,21.21,18.5,5.6,0,10.81-1.84,14.66-5.18,4.02-3.49,6.23-8.42,6.23-13.88,0-10.68-8.91-18.74-20.73-18.74ZM275.77,300.06c0,5.52-1.99,14.86-9.44,14.86-8.04,0-11.03-10-11.03-16.3s3.08-15.18,9.92-15.18c8.35,0,10.55,10.87,10.55,16.62Z"/><path class="cls-1" d="M327.63,311.67c-1.07-1.02-1.04-3.14-1.01-5,0-.3,0-.59,0-.87v-24.9l-16.99,1.37h-.13v2.18l.12.02c7.31,1.17,7.3,1.57,7.3,8.34v17.77c-1.96.91-4.11,1.78-6.8,1.78-6.74,0-7.6-5.98-7.6-11.19v-20.27l-15.93,1.38v2.17l.12.02c6.19.85,6.17,2.28,6.11,7.02,0,.48-.01.99-.01,1.54v9.9c0,.49,0,1-.02,1.5-.05,3.22-.1,6.54,1.71,9.19,1.84,2.83,5.05,4.45,8.82,4.45,4.82,0,9.38-2.68,13.4-5.05l.18-.1-.24,5.43,16.94-3.95.11-.03v-2.34l-3.98.25c-.93.06-1.62-.14-2.12-.62Z"/><path class="cls-1" d="M375.34,306.76v-11.86c.01-3.46.02-7.37-2.1-10.33-1.84-2.57-5.26-4.29-8.5-4.29-5.12,0-9.91,2.66-14.33,5.59l.84-4.79-1.73-1.3-13.01,5.46-.09.04v1.44l.06.04c.89.66,1.62,1.15,2.21,1.54q2.52,1.69,2.52,6.17v12.29c0,6.32,0,6.44-5.96,8l-.11.03v2.17h21.35v-2.16l-.49-.15q-5.1-1.6-5.1-7.88v-18.99c2.16-1.21,4.02-1.78,5.84-1.78,7.8,0,8.88,5.26,8.88,10.95v9.82q0,6.29-5.1,7.88l-.49.15v2.16h21.36v-2.17l-.11-.03c-5.96-1.57-5.96-1.69-5.96-8Z"/><path class="cls-1" d="M427.45,312.44h-.13c-3.53.2-5.31.29-6.21-.56-.97-.92-.96-3.04-.96-7.28v-44.12l-1.55-1.29-13.01,5.46-.09.04v1.44l.06.04c.92.65,1.68,1.15,2.29,1.54q2.6,1.69,2.6,6.17v7.5l-.88-.14c-2.86-.45-6.1-.96-9.59-.96-10.71,0-18.18,10.8-18.18,20.5s7.22,17.3,16.1,17.3c4.68,0,8.89-1.96,12.54-5.83l-.23,6.11,17.42-3.71.13-.03-.26-2.04-.04-.13ZM410.44,296.22v12.95c-1.87,1.72-3.58,2.71-6.72,2.71-8.56,0-11.75-9.51-11.75-15.5,0-5.01,2.3-12.47,8.64-12.47s9.84,6.19,9.84,12.31Z"/><path class="cls-1" d="M463.22,300.85l-.04.12c-2.84,9.59-6.97,12.83-16.39,12.83h-5.08l21.72-31.23.05-.07-.65-1.11h-31.5l-1.21,12.98v.15s2.66,0,2.66,0l.02-.12c1.68-9.88,7.24-9.86,15.68-9.86h2.03s-21.64,31.15-21.64,31.15l-.05.08.73,1.18h32.6l3.65-15.58-2.59-.53Z"/><path class="cls-1" d="M127.82,235.77c-.06-1.24-.07-2.76-.07-4.66v-55.32l.48-14.46-2.41-1.81-19.52,8.19v1.93c7.23,5.3,7.23,3.37,7.23,11.81v49.65c0,1.64,0,3-.05,4.16,4.78-.37,9.62-.23,14.34.5Z"/><path class="cls-1" d="M156.6,247.99c3.86,0,7.59-.48,11.45-1.33,3.74-.84,7.47-1.93,10.97-3.13l-4.7-.42c-15.67,0-15.31-7.9-15.31-21.51v-21.09h20.01v-6.63h-20.01v-14.58h-2.29s-6.16,18.32-21.21,18.32c.12,1.87,0,2.89,0,2.89h9.28v29.41c0,4.69,0,9.19,1.46,12.53,2.37,1.48,4.59,3.21,6.65,5.19,1.08.23,2.31.35,3.7.35Z"/><path class="cls-1" d="M217.49,236.87c-12.89-.67-12.49-.5-12.49-5.75v-14.1c0-5.06.36-13.62,7.35-13.62,3.49,0,6.27,4.1,8.19,6.63,4.22-2.05,9.64-6.75,9.64-11.81,0-3.74-3.86-6.87-7.71-6.87-8.56,0-14.46,8.68-18.68,14.7l-.24-.24,1.45-13.38-1.93-1.81-19.52,8.2v1.93c7.23,5.3,7.23,3.38,7.23,11.81v18.56c0,9.52-2.6,10-11.76,12.41,0,0,5.98-1.53,13-3.33s25.47-3.33,25.47-3.33Z"/><path class="cls-1" d="M311.38,231.11v-28.8c3.13-1.45,5.91-2.77,9.52-2.77,7.59,0,12.05,4.46,12.05,16.03v15.55c0,1.79,0,3.25-.05,4.47,5.88.77,11.59,2.44,16.76,5.13-1.56-2.76-2.49-5.98-2.49-9.6v-20.37l-.48-7.83c2.89-1.69,5.91-3.38,10-3.38,7.59,0,12.05,4.46,12.05,16.03v15.55c0,9.46,1.08,16.96-6.7,19.42,0,0,.02.02.03.03l16.44-2.34c6.21-1.55,12.43-3.57,19.44-5.36,0,0,0-.01-.01-.02-15.46,3.08-14.97-1.95-14.97-11.73v-17.47c-.24-11.57-2.65-22.29-16.51-22.29-7.35,0-15.06,4.94-20.85,8.92-3.01-6.03-8.19-8.92-14.94-8.92-7.47,0-14.46,4.58-20.13,8.68l1.33-7.59-2.41-1.81-19.52,8.2v1.93c7.23,5.3,7.23,3.38,7.23,11.81v18.56c0,4.88,0,7.35-1.24,8.92,4.83-1.31,9.95-2.58,15.56-3.61-.1-1.35-.1-3.07-.1-5.31Z"/><path class="cls-1" d="M482.32,203.4c3.49,0,6.27,4.1,8.19,6.63,4.22-2.05,9.64-6.75,9.64-11.81,0-3.74-3.86-6.87-7.71-6.87-8.56,0-14.46,8.68-18.68,14.7l-.24-.24,1.45-13.38-1.93-1.81-19.52,8.2v1.93c7.23,5.3,7.23,3.38,7.23,11.81v18.56c0,9.52.15,15.18-9.16,13.99-8.69-1.07-12.98-6.16-12.98-13.87v-14.58c0-10.85-1.45-25.31-14.94-25.31-11.33,0-28.32,13.26-28.32,17.59,0,1.45,1.81,1.45,3.01,1.45l10.12-.72v-2.05c0-4.58-.6-8.8,5.42-8.8,10.36,0,10.48,8.32,10.48,17.59l-27.96,11.81c-.72,2.17-1.08,4.22-1.08,6.39,0,3.13.94,5.97,2.58,8.23.15-.03.29-.06.45-.09,3.91-.99,8.06-1.91,12.61-2.62.86-.13,1.73-.23,2.6-.33-2.31-1.56-3.31-4.48-3.31-7.73,0-1.81.48-3.5.84-5.42l13.26-6.99v19.98c6.32.5,11.98,1.28,17.38,4.36.05.07.11.15,0,0,3.34,1.02,6.49,1.78,9.51,2.35l.29.03.64.14c15.11,2.65,26.7.06,39.23-3.42l.88-.36c-17.44,1.96-17.38-1.75-17.38-11.63v-14.1c0-5.06.36-13.62,7.35-13.62Z"/><path class="cls-1" d="M525.49,235.36c-.05-1.16-.05-2.55-.05-4.24v-24.22l.48-14.46-2.41-1.81-19.52,8.2v1.93c7.23,5.3,7.23,3.38,7.23,11.81v18.56c0,3.11,0,5.23-.33,6.78,3.12-.72,6.38-1.38,9.84-1.95,1.57-.26,3.16-.44,4.76-.59Z"/><path class="cls-1" d="M62.43,164.35v3.37c9.24,1.87,14.79,1.73,16.72,8.61-20.41,19.59-25.52,21.52-35,13.82l-.65.65c7.3,8.99,5.93,14.06-10.94,31.97-.87-4.93-.73-10.37-.73-14.8v-16.87c0-16.39-.72-21.93,15.91-23.38v-3.37H0v3.37c14.34,2.41,15.91,1.57,15.91,23.38v19.04c0,10.12-1.21,21.81,7.23,29.41,2.52,2.27,5.58,4.02,8.89,5.36,13.39,3.59,23.92,3.2,34.1,1.23,4.87-1.57,9.38-4.07,12.93-7.79,6.99-7.23,7.23-18.08,7.59-27.6l.84-18.08c.96-20.12.96-21.93,12.53-24.95v-3.37h-37.6ZM58.33,240.75c-8.44,0-18.2-2.89-23.02-10.24-1.29-2.01-2.1-4.42-2.62-6.98,18.16-17.15,23.23-18.57,32.28-11.23l.65-.65c-7.67-9.46-5.79-14.56,13.64-34.82.36,1.46.57,3.22.63,5.36l.84,29.16c.48,14.94-2.53,29.41-22.42,29.41Z"/><path class="cls-1" d="M275.35,231.23v-14.58c0-10.85-1.45-25.31-14.94-25.31-11.33,0-28.32,13.26-28.32,17.59,0,1.45,1.81,1.45,3.01,1.45l10.12-.72v-2.05c0-4.58-.6-8.8,5.42-8.8,10.36,0,10.48,8.32,10.48,17.59l-27.96,11.81c-.72,2.17-1.08,2.98-1.08,6.39,0,2.12,2.42,8.13,11.09,10.59,6.49,1.84,13.49-.11,18.68-3.84.71,2.9,1.83,4.83,3.91,5.82,9.9-1.1,18.99-4.08,29.37-6.93l.54-.22c-22.17,4.67-20.33-1.09-20.33-8.8ZM261.13,238.59c-1.93,1.45-3.74,2.41-6.51,2.41-5.42,0-7.59-4.1-7.59-8.92,0-1.81.48-3.5.84-5.42l13.26-6.99v18.92Z"/><path class="cls-1" d="M598.06,231.11v-16.87c0-5.54.24-11.81-3.13-16.51-2.77-3.86-7.95-6.39-12.65-6.39-7.59,0-14.7,3.86-21.93,8.68l1.33-7.59-2.41-1.81-19.52,8.2v1.93c7.23,5.3,7.23,3.38,7.23,11.81v18.56c0,2.6,0,4.5-.19,5.96,8.1,2.23,15.54,6.39,21.26,12.89,12.69-.57,23.07-4.89,36.45-8.19-6.07-.36-6.42-4.07-6.42-10.67ZM583.84,231.11c0,9.85-5.33,11.98-11.47,11.98s-11.19-2.13-11.19-11.98v-28.8c2.77-1.57,5.78-2.77,9.04-2.77,11.45,0,13.62,7.23,13.62,16.75v14.82Z"/><path class="cls-1" d="M621.92,211.96h35.67c-.48-12.9-7.83-20.61-21.33-20.61-15.55,0-28.08,14.1-28.08,28.92,0,7.59,2.72,14.33,7.25,19.27.21-.04.41-.08.62-.11,6.65-1,13.93-.96,20.76.62-.53-1.59-1.63-3.09-3.04-4.83-8.07-4.17-12.12-13.52-11.85-23.26ZM633.73,195.69c6.39,0,8.32,6.5,8.92,11.57l-20.01.6c1.21-5.42,4.34-12.17,11.09-12.17Z"/><path class="cls-1" d="M28.89,244.01c37.34,18.55,61.24-6.32,97.38-4.71,11.67.66,23.14,5.65,31.37,13.8-9.98-4.75-20.53-7.53-31.44-6.84-16.13.81-32.12,7.66-48.41,10.43-17.58,3.35-35.86.26-48.9-12.68h0Z"/><path class="cls-1" d="M45.41,255.54c31.26,15.59,51.51-5.31,81.85-3.96,9.81.55,19.45,4.75,26.36,11.6-8.23-3.94-17.31-6.35-26.43-5.75-13.55.68-27,6.44-40.69,8.77-14.72,2.83-30.2.19-41.1-10.66h0Z"/><path class="cls-1" d="M135.62,248.26c32.62,16.25,53.68-5.53,85.31-4.13,10.22.57,20.27,4.95,27.48,12.09-8.55-4.1-18.06-6.63-27.54-5.99-14.13.71-28.14,6.71-42.41,9.14-15.37,2.94-31.44.22-42.83-11.11h0Z"/><path class="cls-1" d="M235.31,244.01c37.34,18.55,61.24-6.32,97.38-4.71,11.67.66,23.14,5.65,31.37,13.8-9.98-4.75-20.53-7.53-31.44-6.84-16.13.81-32.12,7.66-48.41,10.43-17.58,3.35-35.86.26-48.9-12.68h0Z"/><path class="cls-1" d="M342.04,248.26c32.62,16.25,53.68-5.53,85.31-4.13,10.22.57,20.27,4.95,27.48,12.09-8.55-4.1-18.06-6.63-27.54-5.99-14.13.71-28.14,6.71-42.41,9.14-15.37,2.94-31.44.22-42.83-11.11h0Z"/><path class="cls-1" d="M441.78,244.01c37.34,18.55,61.24-6.32,97.38-4.71,11.67.66,23.14,5.65,31.37,13.8-9.98-4.75-20.53-7.53-31.44-6.84-16.13.81-32.12,7.66-48.41,10.43-17.58,3.35-35.86.26-48.9-12.68h0Z"/><path class="cls-1" d="M658.4,254.12l.1-.1c-8.18-10.09-5.49-15.22,17.76-39.07-.02-.03-.05-.06-.08-.09s-.06-.06-.09-.08c-23.85,23.25-28.99,25.95-39.07,17.76l-.65.65c3.33,4.1,4.86,7.38,3.94,11.44-2.59-.65-5.23-1.06-7.89-1.21-31.63-1.4-52.69,20.38-85.31,4.13,11.39,11.32,27.46,14.05,42.83,11.11,14.27-2.43,28.28-8.43,42.41-9.14,1.97-.13,3.93-.12,5.89,0-3.07,5.28-9.33,12.17-19.64,22.73.03.04.05.06.09.1.03.03.06.06.09.09,13.87-13.52,21.49-20.17,27.42-21.76,4.72,1.06,9.33,2.74,13.68,4.83-.48-.48-.98-.94-1.48-1.39Z"/><path class="cls-1" d="M164.39,294.58l-.51.51c-7.88-6.38-11.91-4.26-30.64,14.01-.03-.02-.05-.04-.07-.07s-.05-.05-.07-.07c18.27-18.73,20.39-22.76,14.01-30.64l.51-.51c7.88,6.38,11.91,4.26,30.64-14,.03.02.05.04.07.06s.05.05.06.07c-18.27,18.74-20.39,22.76-14,30.64Z"/><path class="cls-1" d="M516.73,281.22l-.3.3c-4.55-3.69-6.87-2.46-17.69,8.09-.02-.01-.03-.02-.04-.04s-.03-.03-.04-.04c10.55-10.81,11.77-13.14,8.09-17.69l.3-.3c4.55,3.69,6.87,2.46,17.69-8.08.01.01.03.02.04.04s.03.03.04.04c-10.55,10.82-11.77,13.14-8.08,17.69Z"/><path class="cls-1" d="M525.98,183.49l-.37.37c-8.01-6.93-11.23-5.72-24.82,7.39-.03-.02-.05-.05-.08-.07s-.05-.05-.07-.08c13.11-13.59,14.33-16.81,7.39-24.82l.37-.37c8.01,6.93,11.23,5.72,24.83-7.39.03.02.05.05.07.07s.05.05.07.07c-13.11,13.6-14.32,16.81-7.39,24.83Z"/><circle class="cls-1" cx="182.67" cy="164.92" r="6.21"/><circle class="cls-1" cx="192.94" cy="175.18" r="4.06"/><circle class="cls-1" cx="184.65" cy="182.18" r="2.87"/><circle class="cls-1" cx="480.45" cy="292.65" r="6.21"/><circle class="cls-1" cx="490.72" cy="302.92" r="4.06"/><circle class="cls-1" cx="482.44" cy="309.91" r="2.87"/><circle class="cls-1" cx="186.02" cy="292.65" r="6.21"/><circle class="cls-1" cx="175.75" cy="302.92" r="4.06"/><circle class="cls-1" cx="184.04" cy="309.91" r="2.87"/><circle class="cls-1" cx="331.35" cy="260.32" r="4"/><circle class="cls-1" cx="336.51" cy="266.76" r="2.62"/><circle class="cls-1" cx="331.72" cy="270.53" r="1.85"/><circle class="cls-1" cx="333.96" cy="274.68" r="1.2"/><circle class="cls-1" cx="606.79" cy="181.68" r="4"/><circle class="cls-1" cx="601.64" cy="188.11" r="2.62"/><circle class="cls-1" cx="606.43" cy="191.88" r="1.85"/><circle class="cls-1" cx="604.18" cy="196.03" r="1.2"/><circle class="cls-1" cx="13.99" cy="249.8" r="6.21"/><circle class="cls-1" cx="24.26" cy="260.07" r="4.06"/><circle class="cls-1" cx="15.98" cy="267.06" r="2.87"/><circle class="cls-1" cx="675.39" cy="235.65" r="4.88"/><circle class="cls-1" cx="667.32" cy="243.71" r="3.19"/><circle class="cls-1" cx="673.83" cy="249.21" r="2.26"/></g></svg>