<?xml version="1.0" encoding="UTF-8"?><svg id="_レイヤー_2" xmlns="http://www.w3.org/2000/svg" viewBox="0 0 177.52 177.2"><defs><style>.cls-1{fill:#1a7fd4;}</style></defs><g id="_レイヤー_1-2"><path class="cls-1" d="M52.58,7.84C20.38,21.92-1.16,55.97.05,91.02c2.42,76.62,93.1,113.87,149.41,62.43,17.3-15.92,27.55-38.88,28.02-62.43C179.41,25.32,112.17-18.67,52.58,7.84ZM136.95,157.08c-.3-.04-.6-.08-.89-.12-2.31-.34-4.38-.69-6.23-1.07-1.86-.36-3.49-.74-4.93-1.09-2.88-.7-4.96-1.33-6.39-1.76-11.55-3.59-17.28-7.49-26.39-11.28,4.58,1.87,8.59,3.05,12.85,4.1,4.27,1.04,8.8,1.9,14.56,2.86,1.42.22,3.49.57,6.32.9,1.41.16,3.01.35,4.8.48,1.8.17,3.79.28,5.99.37,2.2.08,4.75.08,7.4,0-2.23,2.34-4.6,4.55-7.09,6.61ZM147,147.2c-25.84,1.29-54.33-3.75-76.74-15.75-1.94-1.07-4.15-2.19-5.84-3.66-.78-.71-1.59-1.69-.95-1.89.45-.09,1.87.7,2.76,1.14,26.95,13.35,57.75,16.13,87.36,11.41-2.01,3.06-4.21,5.98-6.59,8.75ZM66.02,65.8c8.42-.49,8.84-.88,13.32-12.63-3.8,11.75-3.66,12.14,4.42,12.63-8.43.48-8.84.88-13.32,12.63,3.8-11.75,3.66-12.15-4.42-12.63ZM166.54,104.05c-17.28,5.62-34.96,8.59-53.69,4.97-13.39-2.92-26.26-12.83-27.56-27.1-.62-7.04-.1-12.75,7.43-18.99,7.52-6.24,16.44-4.56,20.22-3.56,3.78,1,11.16,8,7.38,16.59-.75,1.69,2.94-.78,4.25-3.46,1.32-2.68,4.67-11.14-6.59-23.69-4.65-5.18-9.22-8.3-13.79-10.15-.2-.09-.4-.19-.6-.27-.67-.28-1.26-.55-1.82-.76-.57-.21-1.07-.39-1.47-.54-.41-.14-.73-.25-.94-.33-.22-.07-.34-.11-.34-.11,0,0-.57-.17-1.6-.48-1.01-.32-2.6-.72-4.58-1.18-1.02-.2-2.13-.44-3.36-.66-.62-.09-1.26-.19-1.92-.3-.67-.1-1.34-.21-2.06-.28-1.42-.16-2.96-.35-4.4-.44-1.48-.09-2.99-.24-4.57-.27-2.51-.1-5.11-.12-7.7-.04-4.93,16.24-2.94,16.96,11.46,17.82-16.87.98-17.94,1.77-26.68,24.63,8.22,2.66,15.41,7.64,19.43,15.44,2.05,4.08,2.78,8.97-.03,12.93-1.07,1.73-3.41,2.34-5.17,1.3-2.42-1.42-.06-6.36-2.42-8.3-1.15-.73-.86,1.32-.99,2.02-.13,1.07-.74,1.97-1.54,1.51-.37-.24-.66-.81-.84-1.27-1.32-3.2-3.62-7.54-7.53-6.58-4.96,1.12.01,10.25-.55,13.84.1,3.48-4.3,4.57-6.67,2.51-2.42-1.93-3.74-5.11-6.38-6.79-.88-.5-2.13-1.16-2.73-.57-.13.36.1.76.3,1.08.63.93,1.26,1.78,1.8,2.78,5.15,9.12-9.42,3.57-13.58,5.65-8.53,3.11-9.64,15.61-6.4,23.25.21.01.21-.46.28-.69.41-2.5,1.54-9.5,1.88-11.49.1-.48.24-.78.58-1.18.57-.64,1.68-1.81,1.82-1.2.08.3-.14.94-.2,1.34-.94,4.25-.91,8.33-.09,12.16,4.25,18.63,16.54,28.52,22.9,32.55-3.31-2.42-7.56-6.7-11.71-13.2-5.89-9.22-6.67-11.17-4.83-12.33,2.15-1.37,13.13,14.22,35.83,21.5,16.21,5.2,42.59,3.75,65.73-1.23-4.21,3.01-8.72,5.62-13.49,7.74-23.76,10.72-48.22,9.11-68.5-.66-.13-.06-.26-.13-.39-.19-1.87-.91-3.71-1.89-5.5-2.93-15.75-10.63-34.82-28.89-27.86-46.88,2.37-5.53,7.4-10.05,13.43-10.91,1.12-.24,3.2.01,2.83-1.15-1.21-1.97-7.93-3.38-11.12-3.17-3.97.59-12.59,2.68-16.54,4.9-.25.13-.52.28-.78.42-.17-.93-.32-1.86-.46-2.8,1-.45,1.99-.89,2.99-1.32l.09-.03c9.87-4.26,19.72-7.99,30.57-5.88,1.01.22,1.47.55,2.69,1.32,1.74,1.09,4.48,2.8,6.26,3.91.8.49,1.39.94,1.64.88.2-.03.2-.38.07-.94-2.17-9.6-14.54-11.85-23.5-10.29-1.31.06-.95-.57-.09-.87,2.05-.58,4.27-.98,6.31-1.32,4.25-.62,8.34-.47,12.69.11.65.09,1.92.15,1.09-.72-5.4-5.68-26.15-2.16-34.47,1.64-2.1,1-4.79,2.41-7.13,3.62,0-.26,0-.52-.01-.78,2.81-1.85,6.15-3.89,9-5.58,2.63-1.5,5.32-3.26,8.12-4.3,14.75-5.09,30.42-3.65,43.41,4.77,1.34.86.91.06.34-.69-10.86-13.92-32.95-12.58-47.62-6.74-4.99,1.88-8.85,4.98-13.16,7.82.05-1,.11-2.01.2-3.02,4.66-2.81,9.17-5.42,12.65-7.37,4.98-2.8,7.89-4.37,13.04-5.34,7.79-1.22,16.48-.8,24.25,1.71,7.38-22.85,6.87-23.64-9.31-24.62,15-.86,17.5-1.58,24.01-17.8-3.69.12-7.35.42-10.66.89-5.85.8-10.08,2.32-15.53,3.85-9.28,2.82-17.93,6.86-26.14,11.62,7.95-12.55,19.15-22.51,32.06-29.1-.01.29-.01.58.02.88.38,3.84,3.8,6.66,7.64,6.28,3.85-.37,6.66-3.79,6.28-7.64-.17-1.76-.99-3.3-2.19-4.42,2.14-.71,4.3-1.32,6.48-1.85.92,1.35,2.51,2.18,4.25,2.01,2.03-.19,3.6-1.68,4.03-3.56,14.05-1.89,28.78-.14,42.79,6,28.57,12.49,49.3,41.57,49.93,73.04.15,4.37-.09,8.72-.67,13.03ZM61.13,142.79c.56-.13,1.11.22,1.24.78.12.56-.23,1.11-.79,1.24-.55.12-1.11-.23-1.23-.79-.13-.56.23-1.11.78-1.23ZM59.25,140.33c-.16-.72.29-1.43,1.01-1.59.72-.16,1.43.29,1.59,1.01.16.72-.29,1.43-1.01,1.59-.72.16-1.43-.29-1.59-1.01ZM57.01,145.27c-1.09.25-2.17-.44-2.41-1.53-.25-1.09.44-2.17,1.53-2.41,1.09-.25,2.17.44,2.41,1.53.25,1.09-.44,2.17-1.53,2.41ZM44.6,130.02c-1.39.55-2.96-.12-3.51-1.51-.55-1.38.13-2.95,1.51-3.5,1.39-.55,2.96.12,3.51,1.51.55,1.38-.13,2.95-1.51,3.5ZM37.31,124.4c-2.1.84-4.48-.19-5.31-2.29-.84-2.1.19-4.48,2.29-5.31,2.1-.84,4.48.19,5.31,2.29.84,2.1-.19,4.48-2.29,5.31ZM37.12,132.27c-1.07.43-2.29-.09-2.72-1.17-.43-1.07.1-2.29,1.17-2.72,1.08-.42,2.29.1,2.72,1.18.43,1.07-.1,2.29-1.17,2.71Z"/><path class="cls-1" d="M121.6,82.29c-2.99,7.84-3.27,8.1-8.89,8.43,5.39.32,5.48.59,2.95,8.43,2.99-7.84,3.27-8.1,8.89-8.43-5.39-.32-5.48-.59-2.95-8.43Z"/><path class="cls-1" d="M125.58,88.43c2.18-5.71,2.38-5.9,6.48-6.14-3.93-.24-4-.43-2.15-6.14-2.18,5.71-2.38,5.9-6.48,6.14,3.93.24,4,.43,2.15,6.14Z"/><path class="cls-1" d="M126.86,90.85c-1.47,3.86-1.61,3.99-4.37,4.15,2.65.16,2.7.29,1.45,4.15,1.47-3.86,1.61-3.99,4.37-4.15-2.65-.16-2.7-.29-1.45-4.15Z"/><path class="cls-1" d="M136.27,40.11c1.25-.28,2.03-1.51,1.75-2.76s-1.51-2.03-2.76-1.75c-1.25.28-2.03,1.51-1.75,2.76s1.51,2.03,2.76,1.75Z"/><path class="cls-1" d="M122.83,40.86c2.05-.46,3.35-2.49,2.89-4.55-.46-2.05-2.49-3.35-4.55-2.89-2.05.46-3.35,2.49-2.89,4.55.46,2.05,2.49,3.35,4.55,2.89Z"/><path class="cls-1" d="M132.84,54.57c2.25-.5,3.67-2.73,3.17-4.99-.5-2.25-2.73-3.67-4.99-3.17-2.25.5-3.67,2.73-3.17,4.99.5,2.25,2.73,3.67,4.99,3.17Z"/><path class="cls-1" d="M78.43,24.27c1.97-.19,3.4-1.94,3.21-3.91-.19-1.97-1.94-3.4-3.91-3.21-1.97.19-3.4,1.94-3.21,3.91.19,1.97,1.94,3.4,3.91,3.21Z"/><path class="cls-1" d="M135.73,62.93c-1.98.44-3.23,2.41-2.79,4.39.44,1.98,2.41,3.23,4.39,2.79,1.98-.44,3.23-2.41,2.79-4.39-.44-1.98-2.41-3.23-4.39-2.79Z"/></g></svg>